<?xml version="1.0" encoding="UTF-8"?>
<svg width="92px" height="34px" viewBox="0 0 92 34" version="1.1" xmlns="http://www.w3.org/2000/svg" xmlns:xlink="http://www.w3.org/1999/xlink">
    <!-- Generator: Sketch 57.1 (83088) - https://sketch.com -->
    <title>Group 16</title>
    <desc>Created with Sketch.</desc>
    <g id="Services" stroke="none" stroke-width="1" fill="none" fill-rule="evenodd">
        <g id="New-portfolio" transform="translate(-729.000000, -3512.000000)">
            <g id="2-copy" transform="translate(0.000000, 3120.000000)">
                <g id="portfolio">
                    <g id="1">
                        <g id="Group-9" transform="translate(729.000000, 51.000000)">
                            <g id="Group-17" transform="translate(0.000000, 336.000000)">
                                <g id="Group-16" transform="translate(1.000000, 0.000000)">
                                    <path d="M9.522,18 L5.202,12.204 L3.384,14.148 L3.384,18 L1.62,18 L1.62,5.238 L3.384,5.238 L3.384,11.808 L9.36,5.238 L11.682,5.238 L6.372,10.926 L11.754,18 L9.522,18 Z M17.856,18 L16.164,18 L16.164,4.968 L17.856,4.968 L17.856,18 Z M25.11,18 L23.436,18 L23.436,9.342 L25.11,9.342 L25.11,18 Z M23.4,6.93 C23.1719989,6.6899988 23.058,6.40200168 23.058,6.066 C23.058,5.72999832 23.1749988,5.4420012 23.409,5.202 C23.6430012,4.9619988 23.9279983,4.842 24.264,4.842 C24.6000017,4.842 24.8879988,4.95899883 25.128,5.193 C25.3680012,5.42700117 25.488,5.71799826 25.488,6.066 C25.488,6.40200168 25.3680012,6.68699883 25.128,6.921 C24.8879988,7.15500117 24.6000017,7.272 24.264,7.272 C23.9279983,7.272 23.6400012,7.15800114 23.4,6.93 Z M34.326,10.638 C33.5939963,10.638 32.9730026,10.9019974 32.463,11.43 C31.9529975,11.9580026 31.698,12.7019952 31.698,13.662 C31.698,14.6100047 31.9529975,15.3539973 32.463,15.894 C32.9730026,16.4340027 33.5999963,16.704 34.344,16.704 C35.0640036,16.704 35.6129981,16.5240018 35.991,16.164 C36.3690019,15.8039982 36.6239993,15.3900023 36.756,14.922 L38.25,15.57 C38.0099988,16.2900036 37.5570033,16.9199973 36.891,17.46 C36.2249967,18.0000027 35.3760052,18.27 34.344,18.27 C33.0839937,18.27 32.0400041,17.8320044 31.212,16.956 C30.3839959,16.0799956 29.97,14.9820066 29.97,13.662 C29.97,12.3179933 30.3839959,11.2170043 31.212,10.359 C32.0400041,9.50099571 33.0779938,9.072 34.326,9.072 C35.3820053,9.072 36.2369967,9.3419973 36.891,9.882 C37.5450033,10.4220027 37.973999,11.0699962 38.178,11.826 L36.648,12.474 C36.5159993,11.9699975 36.2640019,11.5380018 35.892,11.178 C35.5199981,10.8179982 34.9980034,10.638 34.326,10.638 Z M50.688,9.342 L46.998,12.996 L50.76,18 L48.636,18 L45.81,14.184 L44.604,15.39 L44.604,18 L42.93,18 L42.93,4.968 L44.604,4.968 L44.604,13.176 L48.348,9.342 L50.688,9.342 Z M56.412,15.948 C56.9400026,16.4880027 57.5819962,16.758 58.338,16.758 C59.0940038,16.758 59.7329974,16.4850027 60.255,15.939 C60.7770026,15.3929973 61.038,14.6340049 61.038,13.662 C61.038,12.7019952 60.7770026,11.9490027 60.255,11.403 C59.7329974,10.8569973 59.0940038,10.584 58.338,10.584 C57.5819962,10.584 56.9430026,10.8569973 56.421,11.403 C55.8989974,11.9490027 55.638,12.7019952 55.638,13.662 C55.638,14.6340049 55.8959974,15.3959972 56.412,15.948 Z M55.152,10.386 C55.9920042,9.50999562 57.0539936,9.072 58.338,9.072 C59.6220064,9.072 60.6809958,9.50699565 61.515,10.377 C62.3490042,11.2470043 62.766,12.3419934 62.766,13.662 C62.766,14.9940067 62.3520041,16.0949957 61.524,16.965 C60.6959959,17.8350043 59.6340065,18.27 58.338,18.27 C57.0419935,18.27 55.9800041,17.8350043 55.152,16.965 C54.3239959,16.0949957 53.91,14.9940067 53.91,13.662 C53.91,12.3419934 54.3239959,11.2500043 55.152,10.386 Z M69.318,12.996 L69.318,18 L67.626,18 L67.626,9.342 L69.282,9.342 L69.282,10.584 C69.8580029,9.58799502 70.745994,9.09 71.946,9.09 C72.942005,9.09 73.7069973,9.40799682 74.241,10.044 C74.7750027,10.6800032 75.042,11.501995 75.042,12.51 L75.042,18 L73.35,18 L73.35,12.798 C73.35,11.3459927 72.6780067,10.62 71.334,10.62 C70.6979968,10.62 70.2030018,10.8449977 69.849,11.295 C69.4949982,11.7450022 69.318,12.3119966 69.318,12.996 Z M81.54,12.78 L86.274,12.78 C86.2499999,12.1319968 86.034002,11.6010021 85.626,11.187 C85.217998,10.7729979 84.6420037,10.566 83.898,10.566 C83.2259966,10.566 82.6740022,10.7849978 82.242,11.223 C81.8099978,11.6610022 81.5760002,12.179997 81.54,12.78 Z M86.526,15.03 L87.984,15.534 C87.7319987,16.338004 87.2640034,16.9949974 86.58,17.505 C85.8959966,18.0150025 85.0680049,18.27 84.096,18.27 C82.8839939,18.27 81.8550042,17.8530042 81.009,17.019 C80.1629958,16.1849958 79.74,15.0600071 79.74,13.644 C79.74,12.3239934 80.1479959,11.2320043 80.964,10.368 C81.7800041,9.50399568 82.7519944,9.072 83.88,9.072 C85.1880065,9.072 86.2079963,9.48299589 86.94,10.305 C87.6720037,11.1270041 88.038,12.2279931 88.038,13.608 C88.038,13.8240011 88.0260001,14.0039993 88.002,14.148 L81.486,14.148 C81.4980001,14.9160038 81.7529975,15.5459975 82.251,16.038 C82.7490025,16.5300025 83.3639963,16.776 84.096,16.776 C85.3320062,16.776 86.1419981,16.1940058 86.526,15.03 Z" id="Klickone" fill="#000000" fill-rule="nonzero"></path>
                                    <path d="M0.5,37.5 L53.5,37.5" id="Line-2" stroke="#E2B53C" stroke-width="2" stroke-linecap="square"></path>
                                </g>
                            </g>
                        </g>
                    </g>
                </g>
            </g>
        </g>
    </g>
</svg>