<svg xmlns="http://www.w3.org/2000/svg" width="106" height="33" viewBox="0 0 106 33">
    <g fill="none" fill-rule="evenodd">
        <path fill="#000" d="M9.312 2.112H5.52V12H3.952V2.112H.16V.656h9.152v1.456zm7.216 8.784c.672 0 1.24-.243 1.704-.728.464-.485.696-1.16.696-2.024 0-.853-.232-1.523-.696-2.008a2.267 2.267 0 0 0-1.704-.728c-.672 0-1.24.243-1.704.728-.464.485-.696 1.155-.696 2.008 0 .864.232 1.539.696 2.024a2.267 2.267 0 0 0 1.704.728zm0-6.832c1.141 0 2.083.387 2.824 1.16.741.773 1.112 1.747 1.112 2.92 0 1.184-.368 2.163-1.104 2.936-.736.773-1.68 1.16-2.832 1.16s-2.096-.387-2.832-1.16c-.736-.773-1.104-1.752-1.104-2.936 0-1.173.37-2.147 1.112-2.92.741-.773 1.683-1.16 2.824-1.16zm13.152 6.832c.672 0 1.24-.243 1.704-.728.464-.485.696-1.16.696-2.024 0-.853-.232-1.523-.696-2.008a2.267 2.267 0 0 0-1.704-.728c-.672 0-1.24.243-1.704.728-.464.485-.696 1.155-.696 2.008 0 .864.232 1.539.696 2.024a2.267 2.267 0 0 0 1.704.728zm0-6.832c1.141 0 2.083.387 2.824 1.16.741.773 1.112 1.747 1.112 2.92 0 1.184-.368 2.163-1.104 2.936-.736.773-1.68 1.16-2.832 1.16s-2.096-.387-2.832-1.16c-.736-.773-1.104-1.752-1.104-2.936 0-1.173.37-2.147 1.112-2.92.741-.773 1.683-1.16 2.824-1.16zm11.36 3.488V12h-1.504V4.304h1.472v1.104c.512-.885 1.301-1.328 2.368-1.328.885 0 1.565.283 2.04.848.475.565.712 1.296.712 2.192V12h-1.504V7.376c0-1.29-.597-1.936-1.792-1.936-.565 0-1.005.2-1.32.6-.315.4-.472.904-.472 1.512zm13.408 7.664H52.8l1.92-4.064-3.312-6.848h1.728l2.4 5.312 2.304-5.312h1.616l-5.008 10.912zm11.936-.176h-1.488V4.304h1.456v1.2c.224-.405.56-.736 1.008-.992.448-.256.97-.384 1.568-.384 1.11 0 1.976.379 2.6 1.136.624.757.936 1.717.936 2.88 0 1.173-.323 2.144-.968 2.912-.645.768-1.517 1.152-2.616 1.152-.565 0-1.067-.117-1.504-.352-.437-.235-.768-.533-.992-.896v4.08zm4.544-6.896c0-.779-.205-1.421-.616-1.928-.41-.507-.963-.76-1.656-.76-.683 0-1.235.253-1.656.76-.421.507-.632 1.15-.632 1.928 0 .8.21 1.453.632 1.96.421.507.973.76 1.656.76.683 0 1.232-.253 1.648-.76.416-.507.624-1.16.624-1.96zm10.752 2.752c.672 0 1.24-.243 1.704-.728.464-.485.696-1.16.696-2.024 0-.853-.232-1.523-.696-2.008a2.267 2.267 0 0 0-1.704-.728c-.672 0-1.24.243-1.704.728-.464.485-.696 1.155-.696 2.008 0 .864.232 1.539.696 2.024a2.267 2.267 0 0 0 1.704.728zm0-6.832c1.141 0 2.083.387 2.824 1.16.741.773 1.112 1.747 1.112 2.92 0 1.184-.368 2.163-1.104 2.936-.736.773-1.68 1.16-2.832 1.16s-2.096-.387-2.832-1.16c-.736-.773-1.104-1.752-1.104-2.936 0-1.173.37-2.147 1.112-2.92.741-.773 1.683-1.16 2.824-1.16zm14.128.16v1.6a4.636 4.636 0 0 0-.656-.048c-1.408 0-2.112.79-2.112 2.368V12h-1.504V4.304h1.472v1.344c.47-.981 1.237-1.472 2.304-1.472.17 0 .336.016.496.048zm7.616-2.352v2.432h1.664v1.36h-1.664v4c0 .363.083.63.248.8.165.17.44.256.824.256.224 0 .421-.021.592-.064v1.28c-.256.096-.597.144-1.024.144-.661 0-1.184-.192-1.568-.576-.384-.384-.576-.923-.576-1.616V5.664h-1.472v-1.36h.416c.395 0 .69-.11.888-.328.197-.219.296-.504.296-.856V1.872h1.376z"/>
        <path stroke="#EFAF02" stroke-linecap="square" stroke-width="2" d="M1.5 31.5h47"/>
    </g>
</svg>
